<?xml version="1.0" standalone="no"?>
<!DOCTYPE svg PUBLIC "-//W3C//DTD SVG 20010904//EN"
 "http://www.w3.org/TR/2001/REC-SVG-20010904/DTD/svg10.dtd">
<svg version="1.0" xmlns="http://www.w3.org/2000/svg"
 width="80.000000pt" height="53.000000pt" viewBox="0 0 80.000000 53.000000"
 preserveAspectRatio="xMidYMid meet">

<g transform="translate(0.000000,53.000000) scale(0.100000,-0.100000)"
fill="#000000" stroke="none">
<path d="M367 495 c-15 -14 -24 -25 -19 -25 5 0 17 9 27 20 10 11 23 20 29 20
6 0 -2 -12 -18 -26 -27 -24 -34 -25 -129 -23 -94 2 -101 0 -108 -20 -11 -28
-1 -27 11 2 l9 22 0 -22 c1 -23 -12 -30 -74 -35 -29 -3 -30 -5 -35 -60 -3 -31
-11 -63 -19 -70 -11 -11 -12 -9 -2 9 6 12 11 41 11 64 0 25 7 50 17 61 20 22
11 24 -11 2 -10 -10 -16 -33 -16 -62 0 -26 -6 -57 -14 -68 -12 -17 -12 -22 0
-39 8 -10 14 -39 14 -64 0 -25 4 -52 9 -59 11 -17 1 98 -11 123 -9 20 -9 20 6
1 10 -12 16 -39 16 -67 0 -26 5 -51 10 -54 6 -4 8 -9 6 -13 -2 -4 18 -5 45 -4
46 4 49 2 48 -20 0 -22 -1 -22 -10 -3 -8 18 -9 18 -6 1 2 -17 10 -19 93 -17
88 2 144 -10 144 -32 0 -5 -8 -4 -17 4 -11 8 -10 4 3 -10 l21 -22 38 25 c21
14 33 26 28 26 -6 0 -22 -9 -36 -20 -14 -11 -29 -20 -33 -20 -4 0 7 11 26 25
30 22 44 25 121 25 80 0 87 2 92 21 5 19 12 21 58 17 l53 -3 -3 60 c-1 43 2
66 14 80 l17 20 -6 -20 c-6 -19 -6 -19 9 -1 12 16 12 21 0 40 -8 11 -15 41
-15 66 0 25 -4 51 -9 58 -11 18 -1 -99 11 -123 9 -17 8 -18 -3 -7 -8 7 -16 39
-19 70 -5 55 -6 57 -35 60 -62 5 -75 12 -74 35 l0 22 9 -22 c12 -29 22 -30 11
-2 -7 20 -14 22 -104 20 -94 -2 -137 8 -137 31 0 6 8 4 18 -5 10 -10 22 -17
26 -17 4 0 -6 11 -22 25 -17 14 -31 25 -33 25 -2 0 -17 -12 -32 -25z m43 -39
c0 -3 -4 -8 -10 -11 -5 -3 -10 -1 -10 4 0 6 5 11 10 11 6 0 10 -2 10 -4z m-33
-31 c0 -11 -4 -12 -14 -4 -7 6 -13 13 -13 15 0 2 6 4 13 4 8 0 14 -7 14 -15z
m73 11 c0 -2 -6 -9 -13 -15 -10 -8 -14 -7 -14 4 0 8 6 15 14 15 7 0 13 -2 13
-4z m-120 -51 c0 -9 -6 -12 -15 -9 -8 4 -15 10 -15 15 0 5 7 9 15 9 8 0 15 -7
15 -15z m22 -7 c-7 -7 -12 -8 -12 -2 0 6 3 14 7 17 3 4 9 5 12 2 2 -3 -1 -11
-7 -17z m48 7 c0 -8 -4 -15 -10 -15 -5 0 -10 7 -10 15 0 8 5 15 10 15 6 0 10
-7 10 -15z m70 6 c0 -5 -7 -11 -15 -15 -9 -3 -15 0 -15 9 0 8 7 15 15 15 8 0
15 -4 15 -9z m27 -13 c-3 -8 -6 -5 -6 6 -1 11 2 17 5 13 3 -3 4 -12 1 -19z
m-387 2 c0 -5 -4 -10 -10 -10 -5 0 -10 5 -10 10 0 6 5 10 10 10 6 0 10 -4 10
-10z m600 0 c0 -5 -4 -10 -10 -10 -5 0 -10 5 -10 10 0 6 5 10 10 10 6 0 10 -4
10 -10z m-486 -43 c11 -8 18 -30 21 -62 5 -61 -13 -85 -62 -85 l-33 0 0 73 c0
41 3 77 7 80 11 11 48 8 67 -6z m127 -8 c15 -15 19 -27 14 -42 -10 -29 -10
-58 -1 -79 6 -13 4 -18 -8 -18 -9 0 -22 12 -29 26 l-12 27 -5 -24 c-3 -13 -14
-25 -23 -27 -15 -3 -17 6 -17 71 0 40 3 77 7 80 13 14 54 6 74 -14z m69 14 c7
-115 4 -148 -12 -151 -16 -3 -18 6 -18 77 0 65 3 81 15 81 8 0 15 -3 15 -7z
m108 -5 c23 -23 14 -40 -18 -33 -29 6 -30 6 -30 -33 0 -45 8 -56 27 -40 21 17
41 -6 23 -27 -15 -18 -54 -20 -68 -2 -50 62 11 190 66 135z m115 -2 c7 -19 -1
-26 -30 -26 -14 0 -23 -6 -23 -15 0 -9 9 -15 25 -15 16 0 25 -6 25 -15 0 -9
-9 -15 -25 -15 -14 0 -25 -4 -25 -10 0 -5 11 -10 24 -10 23 0 41 -22 29 -34
-4 -3 -24 -6 -45 -6 l-38 0 0 73 c0 41 3 77 7 80 12 13 71 7 76 -7z m-533
-186 c0 -5 -5 -10 -11 -10 -5 0 -7 5 -4 10 3 6 8 10 11 10 2 0 4 -4 4 -10z
m150 0 c0 -5 -4 -10 -10 -10 -5 0 -10 5 -10 10 0 6 5 10 10 10 6 0 10 -4 10
-10z m40 0 c0 -5 -4 -10 -10 -10 -5 0 -10 5 -10 10 0 6 5 10 10 10 6 0 10 -4
10 -10z m40 0 c0 -5 -4 -10 -10 -10 -5 0 -10 5 -10 10 0 6 5 10 10 10 6 0 10
-4 10 -10z m25 0 c3 -5 1 -10 -4 -10 -6 0 -11 5 -11 10 0 6 2 10 4 10 3 0 8
-4 11 -10z m45 0 c0 -5 -4 -10 -10 -10 -5 0 -10 5 -10 10 0 6 5 10 10 10 6 0
10 -4 10 -10z m40 0 c0 -5 -7 -10 -15 -10 -8 0 -15 5 -15 10 0 6 7 10 15 10 8
0 15 -4 15 -10z m40 0 c0 -5 -7 -10 -15 -10 -8 0 -15 5 -15 10 0 6 7 10 15 10
8 0 15 -4 15 -10z m30 0 c0 -5 -4 -10 -10 -10 -5 0 -10 5 -10 10 0 6 5 10 10
10 6 0 10 -4 10 -10z m40 0 c0 -5 -4 -10 -10 -10 -5 0 -10 5 -10 10 0 6 5 10
10 10 6 0 10 -4 10 -10z m-180 -40 c0 -5 -8 -10 -17 -10 -15 0 -16 2 -3 10 19
12 20 12 20 0z m68 1 c11 -7 11 -9 -1 -14 -16 -6 -27 0 -27 15 0 10 11 10 28
-1z"/>
<path d="M190 294 c0 -8 5 -12 10 -9 6 3 10 10 10 16 0 5 -4 9 -10 9 -5 0 -10
-7 -10 -16z"/>
<path d="M190 245 c0 -8 7 -15 15 -15 8 0 15 4 15 9 0 5 -7 11 -15 15 -9 3
-15 0 -15 -9z"/>
<path d="M310 290 c0 -11 5 -20 10 -20 6 0 10 9 10 20 0 11 -4 20 -10 20 -5 0
-10 -9 -10 -20z"/>
<path d="M753 175 c0 -27 2 -38 4 -22 2 15 2 37 0 50 -2 12 -4 0 -4 -28z"/>
<path d="M642 80 c0 -14 2 -19 5 -12 2 6 2 18 0 25 -3 6 -5 1 -5 -13z"/>
</g>
</svg>
